<?xml version="1.0" encoding="utf-8"?>
<!-- Generator: Adobe Illustrator 21.0.2, SVG Export Plug-In . SVG Version: 6.00 Build 0)  -->
<svg version="1.1" id="Layer_1" xmlns="http://www.w3.org/2000/svg" xmlns:xlink="http://www.w3.org/1999/xlink" x="0px" y="0px"
	 viewBox="0 0 771.5 454.6" style="enable-background:new 0 0 771.5 454.6;" xml:space="preserve">
<style type="text/css">
	.st0{fill:#F1F3F4;}
	.st1{opacity:0.1;fill:url(#SVGID_1_);}
	.st2{opacity:0.1;fill:url(#SVGID_2_);}
	.st3{fill:#F8F9FA;}
	.st4{fill:#ACACAC;}
	.st5{fill:#34A853;}
	.st6{clip-path:url(#SVGID_4_);fill:#ACACAC;}
	.st7{fill:#4285F4;}
	.st8{opacity:8.000000e-02;fill:url(#SVGID_5_);}
	.st9{fill:#007627;}
	.st10{fill:#FFDA5F;}
	.st11{fill:#FFC400;}
	.st12{fill:#373737;}
	.st13{fill:#484848;}
	.st14{fill:#2C2C2C;}
	.st15{fill:#7E7E7E;}
	.st16{fill:none;}
	.st17{fill:#FFFFFF;}
	.st18{fill:#EA4335;}
	.st19{fill:#FBBC04;}
	.st20{fill:none;stroke:#ACACAC;stroke-width:4.8154;stroke-miterlimit:10;}
	.st21{fill:#F5F7F8;}
</style>
<rect x="296.2" y="241.4" class="st0" width="115" height="115"/>
<rect x="416.6" y="121" class="st0" width="115" height="115"/>
<linearGradient id="SVGID_1_" gradientUnits="userSpaceOnUse" x1="459.3055" y1="241.3715" x2="459.3055" y2="264.8318">
	<stop  offset="0" style="stop-color:#FFFFFF"/>
	<stop  offset="1" style="stop-color:#000000"/>
</linearGradient>
<polygon class="st1" points="387.1,266.7 416.6,241.4 531.5,241.4 502,266.7 "/>
<linearGradient id="SVGID_2_" gradientUnits="userSpaceOnUse" x1="529.2423" y1="311.4956" x2="504.2586" y2="311.4956">
	<stop  offset="0" style="stop-color:#FFFFFF"/>
	<stop  offset="1" style="stop-color:#000000"/>
</linearGradient>
<polygon class="st2" points="502,381.6 531.5,356.3 531.5,241.4 502,266.7 "/>
<rect x="387.1" y="266.7" class="st3" width="115" height="115"/>
<g>
	<path class="st4" d="M464.1,335.4c-2.4,0-4.4-1.9-4.4-4.4v-11.5c0-2.4,1.9-4.4,4.4-4.4c2.4,0,4.4,1.9,4.4,4.4V331
		C468.4,333.4,466.5,335.4,464.1,335.4z"/>
	<path class="st4" d="M424.8,312.8c2.4,0,4.4,1.9,4.4,4.4v11.5c0,2.4-1.9,4.4-4.4,4.4c-2.4,0-4.4-1.9-4.4-4.4v-11.5
		C420.4,314.8,422.4,312.8,424.8,312.8z"/>
	<path class="st4" d="M437.9,341.5c2.4,0,4.4-1.9,4.4-4.3v-33.5c0-2.4-1.9-4.3-4.4-4.3c-2.4,0-4.3,1.9-4.3,4.3v33.5
		C433.6,339.5,435.5,341.5,437.9,341.5z"/>
	<path class="st4" d="M451,306.7c-2.4,0-4.4,1.9-4.4,4.3v33.5c0,2.4,1.9,4.3,4.4,4.3c2.4,0,4.3-1.9,4.3-4.3V311
		C455.4,308.7,453.4,306.7,451,306.7z"/>
</g>
<rect x="537" class="st0" width="115" height="115"/>
<g>
	<path class="st5" d="M609.7,34.3H576c-2.6,0-4.8,2.2-4.8,4.8v33.7c0,2.6,2.2,4.8,4.8,4.8h33.7c2.6,0,4.8-2.2,4.8-4.8V39.1
		C614.5,36.5,612.4,34.3,609.7,34.3z M604.9,48.8h-24.1v-4.8h24.1V48.8z M604.9,58.4h-24.1v-4.8h24.1V58.4z M597.7,68h-16.9v-4.8
		h16.9V68z"/>
</g>
<g>
	<rect x="55.4" y="241.4" class="st3" width="115" height="115"/>
	<g>
		<g>
			<defs>
				<path id="SVGID_3_" d="M126.9,288.8c0,6.3-5.1,11.3-11.3,11.3c-6.3,0-11.3-5.1-11.3-11.3c0-6.3,5.1-11.3,11.3-11.3
					C121.8,277.5,126.9,282.5,126.9,288.8z M100.9,303c-6.3,0-11.3,5.1-11.3,11.3c0,6.3,5.1,11.3,11.3,11.3
					c6.3,0,11.3-5.1,11.3-11.3C112.2,308,107.1,303,100.9,303z M130.3,303c-6.3,0-11.3,5.1-11.3,11.3c0,6.3,5.1,11.3,11.3,11.3
					c6.3,0,11.3-5.1,11.3-11.3C141.6,308,136.6,303,130.3,303z"/>
			</defs>
			<use xlink:href="#SVGID_3_"  style="overflow:visible;fill:#ACACAC;"/>
			<clipPath id="SVGID_4_">
				<use xlink:href="#SVGID_3_"  style="overflow:visible;"/>
			</clipPath>
			<ellipse class="st6" cx="109.6" cy="299.5" rx="28.5" ry="28.5"/>
		</g>
	</g>
</g>
<g>
	<rect x="537" y="121" class="st3" width="115" height="115"/>
</g>
<g>
	<rect x="537" y="241.4" class="st7" width="115" height="115"/>
</g>
<rect x="657.3" y="241.4" class="st0" width="115" height="115"/>
<linearGradient id="SVGID_5_" gradientUnits="userSpaceOnUse" x1="238.4482" y1="449.0352" x2="385.4485" y2="449.0352">
	<stop  offset="0" style="stop-color:#FFFFFF"/>
	<stop  offset="1" style="stop-color:#000000"/>
</linearGradient>
<ellipse class="st8" cx="311.9" cy="449" rx="73.5" ry="5.6"/>
<g>
	<path class="st9" d="M352.5,320c0,0,5.2,7,10,11.4c0,0,16.6-8.2,23.6-9.2v3.5c0,0-12.7,13.8-22.5,17"/>
	<path class="st10" d="M365.6,297c-0.3-1-2.8,0.2-3.8,0.4c-1,0.3-1.6,1.3-1.3,2.2c0.3,1,1.5,0,2.5,0.3
		C364.5,300.3,365.9,297.9,365.6,297z"/>
	<ellipse transform="matrix(0.97 -0.243 0.243 0.97 -62.2279 94.8745)" class="st10" cx="353.5" cy="299.7" rx="9.9" ry="10.4"/>
	<path class="st10" d="M355.7,305.2l-9.3-0.8c0,0,0.9,7.4-3,10.4c-3.9,3,11.3,2,11.3,2L355.7,305.2z"/>
	<path class="st11" d="M343.4,314.8c3.9-3,3-10.4,3-10.4s4.9,3,7.3,3.2c0,0,0,2.6-0.1,5.7L343.4,314.8z"/>
	<path class="st12" d="M355.5,307.1c0,0-4.3,4.7-12.8,4.2c-8.5-0.5-9.5-9.9-3.8-12.8c0,0-2-3.6,1.7-7.4s15.1-6,20.2-1.9
		c5.1,4.1-0.7,8.3-5.5,9.7C350.4,300.3,346.9,307.6,355.5,307.1z"/>
	<path class="st13" d="M326.5,441c0,0,27.1-34,22.6-57.4c0.7,9.2,7.5,16.4,10.3,24.9c3.3,10.1-1.1,23.5,5,32.5h4.9
		c0,0,16.8-43.5,5-71.2c-3.1-7.3-13.2-8.4-21-9.8c-7.2-1.3-20.1-4.3-24.9,2.4c-3.8,5.2-1.9,16-1,22.3c1.4,9.8-3.7,19.6-0.8,29.1
		c1.5,4.7-4.4,27.2-4.4,27.2H326.5z"/>
	<path class="st14" d="M326.8,381.6c0,0,36.3,5,49.4-7.8l-50.8-3.1C325.4,370.8,324.8,374.4,326.8,381.6z"/>
	<path class="st5" d="M413.8,336.6c-4.6,4.2-10.1,14.1-22.5,16.7c-8.9,1.8-21.9-7.3-25.6-13.5c3.2,7.2,9,26.4,10.5,34.1
		c0.3,1.6-17,3.1-18.6,3.1c-6.9,0-33.3-1.6-32.2-6.2c6.8-29.3,0.2-38.7,6.2-47.5c5.5-8,12.3-9.3,19-9.5c11.7-0.4,17.2,5.6,24.1,10.2
		c8.7,5.8,16.8,20.5,16.8,20.5s6.9-6.8,19-8.8L413.8,336.6z"/>
	<polygon class="st15" points="364.5,441 363.1,449 380.6,449 369.7,443.8 369.3,441 	"/>
	<polygon class="st15" points="322.1,441 320.7,449 338.2,449 327.3,443.8 326.9,441 	"/>
	<path class="st10" d="M410.6,335.7c0,0,0.7-4,1.1-4.4c0.4-0.4,1.1,2.2,1.1,2.2s4.4-5.5,5.1-5.5c0.7,0,1.1,3.7,0.7,4.8
		c-0.4,1.1-3.3,3.7-5.1,4L410.6,335.7z"/>
</g>
<path class="st16" d="M527.3,164.9h14.4v14.4h-14.4V164.9z"/>
<g>
	<path class="st4" d="M472.6,202.9c13.3,0,24.1-10.8,24.1-24.1c0-13.3-10.8-24.1-24.1-24.1c-13.3,0-24.1,10.8-24.1,24.1
		C448.5,192.1,459.3,202.9,472.6,202.9L472.6,202.9z"/>
	<path class="st17" d="M460.1,178.8l4.1-4.1c0.1-0.1,0.2-0.3,0.2-0.5c0-0.4-0.3-0.7-0.7-0.7c-0.2,0-0.4,0.1-0.5,0.2
		c0,0-4.1,4.1-4.1,4.1l-4.1-4.1c-0.1-0.1-0.3-0.2-0.5-0.2c-0.4,0-0.7,0.3-0.7,0.7c0,0.2,0.1,0.4,0.2,0.5l4.1,4.1l-4.1,4.1
		c-0.1,0.1-0.2,0.3-0.2,0.5c0,0.4,0.3,0.7,0.7,0.7c0.2,0,0.4-0.1,0.5-0.2l4.1-4.1l4.1,4.1c0.1,0.2,0.3,0.2,0.5,0.2
		c0.4,0,0.7-0.3,0.7-0.7c0-0.2-0.1-0.4-0.2-0.5L460.1,178.8L460.1,178.8z"/>
	<path class="st17" d="M484.5,178.8c0,0.7,0.6,1.3,1.3,1.3c0.7,0,1.3-0.6,1.3-1.3c0-0.7-0.6-1.3-1.3-1.3
		C485.1,177.4,484.5,178,484.5,178.8L484.5,178.8z"/>
	<path class="st17" d="M480.4,178.8c0,3,2.4,5.4,5.4,5.4s5.4-2.4,5.4-5.4c0-3-2.4-5.4-5.4-5.4S480.4,175.8,480.4,178.8L480.4,178.8z
		 M482,178.8c0-2.1,1.7-3.9,3.9-3.9c2.1,0,3.9,1.7,3.9,3.9c0,2.1-1.7,3.9-3.9,3.9C483.7,182.6,482,180.9,482,178.8L482,178.8z"/>
	<path class="st17" d="M480,173.5l-0.2,0c-0.7,0-1.3,0.2-1.9,0.6c-0.1-0.3-0.4-0.6-0.7-0.6c-0.4,0-0.7,0.3-0.7,0.7c0,0,0,9.1,0,9.1
		c0,0.4,0.3,0.7,0.7,0.7c0.4,0,0.7-0.3,0.7-0.7l0-5.6c0-1.9,0.2-2.6,1.8-2.8c0.1,0,0.3,0,0.3,0c0.4,0,0.7-0.3,0.7-0.7
		C480.8,173.8,480.5,173.5,480,173.5L480,173.5z"/>
	<path class="st17" d="M475,177.7c-0.3-1.5-1.1-2.7-2.4-3.5c-1.8-1.2-4.2-1.1-6,0.2c-1.4,1-2.3,2.7-2.3,4.4c0,0.4,0.1,0.9,0.2,1.3
		c0.5,2.1,2.4,3.8,4.6,4c0.7,0.1,1.3,0,1.9-0.1c0.6-0.1,1.1-0.4,1.6-0.7c0.5-0.3,1-0.8,1.4-1.3c0,0,0,0,0,0c0.3-0.4,0.2-0.9-0.1-1.1
		c-0.3-0.2-0.7-0.3-1.1,0.2c-0.1,0.1-0.2,0.2-0.3,0.3c-0.3,0.3-0.6,0.6-1.1,0.9c-0.5,0.3-1.2,0.5-1.8,0.5c-2.1,0-3.3-1.5-3.7-2.6
		c-0.1-0.2-0.1-0.4-0.2-0.6c0,0,0-0.1,0-0.1c0.4,0,7.7,0,7.7,0C474.6,179.3,475.2,178.6,475,177.7L475,177.7z M465.9,177.9
		C465.9,177.9,465.9,177.8,465.9,177.9c0.4-1.8,2-3,3.8-3c1.8,0,3.4,1.3,3.8,3H465.9L465.9,177.9z"/>
</g>
<g>
	<path class="st4" d="M733.9,315.3c0,0-3.9,2.2-6.3,3.6c-2.4,1.3-6.4,1.6-7-2.5c-0.9-5.4-3.7-10.6-6-14c-3.4-5.1-7.4-7.7-7.4-7.7
		s5.4,1,8.6,7c0-7.8-3-13.2-17.9-13.2c0,11.4,6.8,14.7,12.4,15.6c5,0.8,7.8,8,7.2,14.7c-0.6,7-8.2,5-10.2,3.8
		c-2.1-1.2-13.4-7.5-13.4-7.5c-1.8-1-3.2-3.4-3.2-5.4v-18.4c0-2,1.4-4.4,3.2-5.4l16.9-9.5c1.8-1,4.7-1,6.4,0l16.8,9.5
		c1.8,1,3.2,3.4,3.2,5.4v18.4C737.1,311.9,735.6,314.3,733.9,315.3 M717.3,304.2c2-4.7,6.4-5,6.4-5s-4.5,1-5.5,5.7
		c-0.4,1.8,0.6,2.7,1.6,2.9c1.6,0.2,10-0.3,10-12.1C719.7,295.7,717.3,299.6,717.3,304.2"/>
</g>
<path class="st17" d="M611.7,277.7h-2.2v-4.4h-4.4v4.4h-21.9v-4.4h-4.4v4.4h-2.2c-2.4,0-4.4,2-4.4,4.4v35c0,2.4,2,4.4,4.4,4.4h35
	c2.4,0,4.4-2,4.4-4.4v-35C616.1,279.6,614.2,277.7,611.7,277.7z M611.7,317h-35v-28.5h35V317z"/>
<g>
	<g>
		<rect x="175.8" y="241.4" class="st18" width="115" height="115"/>
	</g>
	<path class="st17" d="M252.5,279.6H214c-2.6,0-4.8,2.2-4.8,4.8v28.9c0,2.6,2.2,4.8,4.8,4.8h38.5c2.6,0,4.8-2.2,4.8-4.8v-28.9
		C257.4,281.8,255.2,279.6,252.5,279.6z M252.5,313.3h-4.8v-21.2l-14.4,9.1l-14.4-9.1v21.2H214v-28.9h2.9l16.4,10.1l16.4-10.1h2.9
		V313.3z"/>
</g>
<rect x="296.2" y="121" class="st19" width="115" height="115"/>
<path class="st17" d="M376.7,185.1l-15.2-26.6h-15.2v0l15.2,26.6H376.7z M348.8,187.3l-7.6,13.3h29.1l7.6-13.3H348.8z M344.4,161.9
	l-14.6,25.5l7.6,13.3l14.6-25.5C352,175.2,344.4,161.9,344.4,161.9z"/>
<rect x="583" y="160.9" transform="matrix(0.7071 0.7071 -0.7071 0.7071 301.6542 -366.5015)" class="st20" width="20.4" height="40"/>
<g>
	<circle class="st5" cx="502" cy="268.5" r="13.8"/>
	<g>
		<rect x="499.8" y="261.2" class="st17" width="4.2" height="15"/>
		
			<rect x="499.8" y="261.2" transform="matrix(-1.836970e-16 1 -1 -1.836970e-16 770.6506 -233.1326)" class="st17" width="4.2" height="15"/>
	</g>
</g>
<polygon class="st5" points="78.4,192.9 76.5,187.9 78.4,182.9 73.4,184.8 68.4,182.9 70.3,187.9 68.4,192.9 73.4,191 "/>
<polygon class="st19" points="464.7,63.1 462.5,57.5 464.7,51.8 459,54 453.4,51.8 455.5,57.5 453.4,63.1 459,61 "/>
<g>
	<polygon class="st7" points="695.5,196.8 693.6,191.8 695.5,186.8 690.5,188.6 685.5,186.8 687.4,191.8 685.5,196.8 690.5,194.9 	
		"/>
</g>
<path class="st9" d="M365.7,339.8c0,0,14.3,10.1,23.6,9.1c9.2-1.1,10.2,3.2,2,4.5S371.5,348.9,365.7,339.8z"/>
<g>
	<path class="st21" d="M202.1,168.3c-0.7,0-1.5,0.1-2.2,0.2c-2.8-5.8-8.7-9.7-15.5-9.7c-3.9,0-7.5,1.3-10.4,3.6
		c-2.4-6.6-8.7-11.2-16.1-11.2c-9.5,0-17.2,7.7-17.2,17.2c0,2.2,0.4,4.3,1.2,6.2h-6.4c-5.2,0-9.3,4.2-9.3,9.3c0,5.2,4.2,9.3,9.3,9.3
		h66.6c6.9,0,12.4-5.6,12.4-12.4S209,168.3,202.1,168.3z"/>
</g>
<g>
	<path class="st21" d="M724.2,111c-2.9,0-5.7,1-7.8,2.7c-1.8-4.9-6.5-8.4-12.1-8.4c-7.1,0-12.9,5.8-12.9,12.9c0,1.6,0.3,3.2,0.9,4.6
		h-4.8c-3.9,0-7,3.1-7,7c0,3.9,3.1,7,7,7h36.7c7.1,0,12.9-5.8,12.9-12.9C737.1,116.7,731.3,111,724.2,111z"/>
</g>
<g>
	<path class="st21" d="M30.6,166.4c-0.2-4.4-3.8-7.9-8.3-7.9c-1.8,0-3.4,0.6-4.7,1.5c-1.2-3.1-4.2-5.2-7.7-5.2
		c-4.6,0-8.3,3.7-8.3,8.3c0,1.4,0.4,2.8,1,4c-1.1,0.8-1.8,2.1-1.8,3.6c0,2.5,2,4.5,4.5,4.5h23.7c2.5,0,4.5-2,4.5-4.5
		C33.6,168.6,32.3,167,30.6,166.4z"/>
</g>
</svg>
